<svg width="28" height="12" viewBox="0 0 28 12" fill="none" xmlns="http://www.w3.org/2000/svg">
<path d="M10.3301 8.5C9.77979 9.45321 8.9303 10.1982 7.91342 10.6194C6.89653 11.0406 5.76907 11.1145 4.7059 10.8296C3.64274 10.5448 2.70328 9.91703 2.03323 9.04381C1.36319 8.17059 1 7.10067 1 6C1 4.89933 1.36319 3.82941 2.03323 2.95619C2.70328 2.08297 3.64274 1.45525 4.7059 1.17037C5.76907 0.885496 6.89653 0.959394 7.91342 1.3806C8.9303 1.80181 9.77979 2.54679 10.3301 3.5" stroke="black" stroke-width="2"/>
<path d="M6 6H27M27 6L23 2M27 6L23 10" stroke="black"/>
</svg>
