<svg width="2559" height="637" viewBox="0 0 2559 637" fill="none" xmlns="http://www.w3.org/2000/svg">
<mask id="mask0" mask-type="alpha" maskUnits="userSpaceOnUse" x="58" y="91" width="451" height="465">
<path d="M352 290H509V91.5H58V556H509V370H352V290Z" fill="white"/>
</mask>
<g mask="url(#mask0)">
<mask id="mask1" mask-type="alpha" maskUnits="userSpaceOnUse" x="90" y="145" width="370" height="370">
<rect x="130" y="185" width="290" height="290" rx="145" stroke="#202020" stroke-width="80"/>
</mask>
<g mask="url(#mask1)">
<path d="M232.229 414L282.459 501H182L232.229 414Z" fill="#202020"/>
<path d="M132.229 414L182.459 501H82L132.229 414Z" fill="#202020"/>
<path d="M432.229 414L482.459 501H382L432.229 414Z" fill="#202020"/>
<path d="M332.229 414L382.459 501H282L332.229 414Z" fill="#202020"/>
<path d="M181.229 499L231.459 586H131L181.229 499Z" fill="#202020"/>
<path d="M81.2295 499L131.459 586H31L81.2295 499Z" fill="#202020"/>
<path d="M381.229 499L431.459 586H331L381.229 499Z" fill="#202020"/>
<path d="M281.229 499L331.459 586H231L281.229 499Z" fill="#202020"/>
<path d="M232.229 66.0001L282.459 153H182L232.229 66.0001Z" fill="#202020"/>
<path d="M132.229 66.0001L182.459 153H82L132.229 66.0001Z" fill="#202020"/>
<path d="M432.229 66.0001L482.459 153H382L432.229 66.0001Z" fill="#202020"/>
<path d="M332.229 66.0001L382.459 153H282L332.229 66.0001Z" fill="#202020"/>
<path d="M182.229 153L232.459 240H132L182.229 153Z" fill="#202020"/>
<path d="M82.2295 153L132.459 240H32L82.2295 153Z" fill="#202020"/>
<path d="M382.229 153L432.459 240H332L382.229 153Z" fill="#202020"/>
<path d="M482.229 153L532.459 240H432L482.229 153Z" fill="#202020"/>
<path d="M282.229 153L332.459 240H232L282.229 153Z" fill="#202020"/>
<path d="M232.229 240L282.459 327H182L232.229 240Z" fill="#202020"/>
<path d="M132.229 240L182.459 327H82L132.229 240Z" fill="#202020"/>
<path d="M432.229 240L482.459 327H382L432.229 240Z" fill="#202020"/>
<path d="M332.229 240L382.459 327H282L332.229 240Z" fill="#202020"/>
<path d="M182.229 327L232.459 414H132L182.229 327Z" fill="#202020"/>
<path d="M82.2295 327L132.459 414H32L82.2295 327Z" fill="#202020"/>
<path d="M382.229 327L432.459 414H332L382.229 327Z" fill="#202020"/>
<path d="M282.229 327L332.459 414H232L282.229 327Z" fill="#202020"/>
<path d="M482.229 327L532.459 414H432L482.229 327Z" fill="#202020"/>
<path d="M382.23 153L332 66.0002L432.459 66.0002L382.23 153Z" fill="#404040"/>
<path d="M482.23 153L432 66.0002L532.459 66.0002L482.23 153Z" fill="#404040"/>
<path d="M182.23 153L132 66.0002L232.459 66.0002L182.23 153Z" fill="#404040"/>
<path d="M282.23 153L232 66.0002L332.459 66.0002L282.23 153Z" fill="#404040"/>
<path d="M382.23 501L332 414L432.459 414L382.23 501Z" fill="#404040"/>
<path d="M482.23 501L432 414L532.459 414L482.23 501Z" fill="#404040"/>
<path d="M182.23 501L132 414L232.459 414L182.23 501Z" fill="#404040"/>
<path d="M82.2295 501L32 414L132.459 414L82.2295 501Z" fill="#404040"/>
<path d="M282.23 501L232 414L332.459 414L282.23 501Z" fill="#404040"/>
<path d="M432.23 588L382 501L482.459 501L432.23 588Z" fill="#404040"/>
<path d="M232.23 588L182 501L282.459 501L232.23 588Z" fill="#404040"/>
<path d="M132.23 588L82 501L182.459 501L132.23 588Z" fill="#404040"/>
<path d="M332.23 588L282 501L382.459 501L332.23 588Z" fill="#404040"/>
<path d="M432.23 414L382 327L482.459 327L432.23 414Z" fill="#404040"/>
<path d="M232.23 414L182 327L282.459 327L232.23 414Z" fill="#404040"/>
<path d="M132.23 414L82 327L182.459 327L132.23 414Z" fill="#404040"/>
<path d="M332.23 414L282 327L382.459 327L332.23 414Z" fill="#404040"/>
<path d="M382.23 327L332 240L432.459 240L382.23 327Z" fill="#404040"/>
<path d="M482.23 327L432 240L532.459 240L482.23 327Z" fill="#404040"/>
<path d="M182.23 327L132 240L232.459 240L182.23 327Z" fill="#404040"/>
<path d="M282.23 327L232 240L332.459 240L282.23 327Z" fill="#404040"/>
<path d="M82.2295 327L32 240L132.459 240L82.2295 327Z" fill="#404040"/>
<path d="M432.23 240L382 153L482.459 153L432.23 240Z" fill="#404040"/>
<path d="M232.23 240L182 153L282.459 153L232.23 240Z" fill="#404040"/>
<path d="M332.23 240L282 153L382.459 153L332.23 240Z" fill="#404040"/>
<path d="M132.23 240L82 153L182.459 153L132.23 240Z" fill="#404040"/>
</g>
</g>
<mask id="mask2" mask-type="alpha" maskUnits="userSpaceOnUse" x="222" y="277" width="283" height="106">
<rect x="222" y="277" width="106" height="106" rx="53" fill="#00BCD4"/>
<mask id="mask3" maskUnits="userSpaceOnUse" x="335" y="303" width="170" height="55">
<rect x="335" y="303" width="170" height="55" fill="white"/>
</mask>
<g mask="url(#mask3)">
<path d="M309 330H531" stroke="#00BCD4" stroke-width="20" stroke-dasharray="50 10"/>
</g>
</mask>
<g mask="url(#mask2)">
<rect x="177" y="276" width="349" height="113" fill="url(#paint0_linear)"/>
</g>
<path d="M2481.07 406.85V444.673H2320.32V205.129H2358.15V406.85H2481.07Z" fill="#202020"/>
<path d="M2282.5 343.684V305.861H2159.58V242.823H2282.5V205H2121.75V444.544H2282.5V406.722H2159.58V343.684H2282.5Z" fill="#202020"/>
<path d="M2083.93 444.545V406.722V205H2046.11V406.722H2045.11L1989.37 205L1923.18 205V444.544H1961.01V242.823H1962L2017.74 444.545L2083.93 444.545Z" fill="#202020"/>
<path fill-rule="evenodd" clip-rule="evenodd" d="M1894.66 444.544H1856.84L1833.64 343.812H1790.2L1767.01 444.544H1729.18L1784.34 205H1839.5L1894.66 444.544ZM1824.93 305.989H1798.91L1811.92 249.487L1824.93 305.989Z" fill="#202020"/>
<path fill-rule="evenodd" clip-rule="evenodd" d="M1571.82 205H1644.31C1679.71 205 1703.37 213.356 1716.94 230.152C1729.48 245.678 1729.43 264.216 1729.41 273.304C1729.41 273.664 1729.41 274.01 1729.41 274.34C1729.41 284.958 1728.19 303.454 1714.67 319.039C1700.81 335.022 1677.89 343.681 1644.31 343.681H1609.64V444.543H1571.82V205ZM1609.64 305.861H1644.31C1672.02 305.861 1682.2 298.76 1686.1 294.256C1690.36 289.354 1691.59 282.634 1691.59 274.34C1691.59 264.076 1691.03 258.26 1687.52 253.915C1684.53 250.223 1675.1 242.82 1644.31 242.82H1609.64V305.861Z" fill="#202020"/>
<path fill-rule="evenodd" clip-rule="evenodd" d="M1370.1 205.5H1442.59C1462.23 205.5 1478.61 210.22 1491.68 219.347C1504.69 228.435 1512.89 240.822 1518.04 253.576C1527.7 277.507 1527.7 305.803 1527.69 323.983C1527.69 324.418 1527.69 324.848 1527.69 325.271C1527.69 344.349 1526.59 373.037 1516.02 397.41C1510.59 409.924 1502.34 422.082 1489.8 431.065C1477.1 440.158 1461.33 445.042 1442.59 445.042H1370.1V205.5ZM1407.92 243.32V407.222H1442.59C1454.5 407.222 1462.32 404.225 1467.78 400.316C1473.39 396.298 1477.86 390.333 1481.32 382.36C1488.52 365.758 1489.87 344.015 1489.87 325.271C1489.87 305.559 1489.62 284.209 1482.97 267.738C1479.85 260.004 1475.63 254.268 1470.03 250.354C1464.48 246.48 1456.05 243.32 1442.59 243.32H1407.92Z" fill="#202020"/>
<path d="M1286.78 241.724C1278.59 238.104 1267.42 237.821 1255.05 237.821C1243.75 237.821 1232.14 238.773 1223.78 242.736C1219.98 244.543 1217.44 246.71 1215.77 249.262C1214.14 251.76 1212.5 255.889 1212.5 263.037V439.543H1174.68V263.037C1174.68 249.757 1177.84 238.155 1184.13 228.549C1190.38 218.997 1198.89 212.686 1207.57 208.568C1224.19 200.683 1243.31 200.001 1255.05 200.001C1255.42 200.001 1255.8 200 1256.19 200L1256.3 200C1267.21 199.999 1285.93 199.998 1302.07 207.13C1311.02 211.083 1319.75 217.419 1326.09 227.351C1332.4 237.232 1335.42 249.237 1335.42 263.037V439.544H1297.6V263.037C1297.6 254.774 1295.83 250.232 1294.21 247.702C1292.63 245.224 1290.32 243.285 1286.78 241.724Z" fill="#202020"/>
<path fill-rule="evenodd" clip-rule="evenodd" d="M1092.73 386.506L1092.73 210H1130.55L1130.55 386.506C1130.55 400.307 1127.52 412.312 1121.22 422.192C1114.88 432.125 1106.14 438.46 1097.19 442.414C1081 449.57 1062.21 449.544 1051.32 449.544C1050.93 449.543 1050.55 449.543 1050.18 449.543C1038.43 449.543 1019.31 448.86 1002.7 440.975C994.019 436.857 985.509 430.546 979.257 420.994C972.969 411.388 969.806 399.787 969.806 386.506L969.806 210L1007.63 210L1007.63 386.506C1007.63 393.655 1009.27 397.784 1010.9 400.282C1012.57 402.834 1015.1 405.001 1018.91 406.807C1027.26 410.771 1038.87 411.723 1050.18 411.723C1062.54 411.723 1073.72 411.439 1081.91 407.82C1085.45 406.258 1087.76 404.32 1089.34 401.842C1090.95 399.311 1092.73 394.769 1092.73 386.506Z" fill="#202020"/>
<path fill-rule="evenodd" clip-rule="evenodd" d="M820.226 265.073C815.482 282.692 815.361 305.263 815.361 324.771C815.361 343.64 816.248 366.462 821.358 384.132C823.899 392.92 827.052 398.832 830.286 402.306C832.985 405.205 835.933 406.722 840.577 406.722H875.248C879.892 406.722 882.84 405.205 885.539 402.306C888.773 398.832 891.926 392.92 894.467 384.132C899.577 366.462 900.465 343.64 900.465 324.771C900.465 305.263 900.343 282.692 895.599 265.073C893.264 256.4 890.242 250.72 887.08 247.408C884.479 244.683 881.164 242.82 875.248 242.82H840.577C834.661 242.82 831.346 244.683 828.745 247.408C825.583 250.72 822.561 256.4 820.226 265.073ZM801.388 221.294C811.197 211.017 824.43 205 840.577 205H875.248C891.395 205 904.628 211.017 914.437 221.294C923.686 230.982 928.938 243.426 932.119 255.241C938.29 278.164 938.287 305.427 938.285 323.745C938.285 324.09 938.285 324.432 938.285 324.771C938.285 343.724 937.538 371.333 930.799 394.638C927.416 406.336 922.091 418.548 913.22 428.076C903.815 438.178 891.033 444.542 875.248 444.542H840.577C824.792 444.542 812.01 438.178 802.605 428.076C793.734 418.548 788.409 406.336 785.026 394.638C778.287 371.333 777.541 343.724 777.541 324.771C777.541 324.432 777.541 324.09 777.54 323.745C777.538 305.427 777.535 278.164 783.707 255.241C786.887 243.426 792.139 230.982 801.388 221.294Z" fill="#202020"/>
<path fill-rule="evenodd" clip-rule="evenodd" d="M631.014 250.747C628.182 256.202 627.823 263.985 627.823 274.34C627.823 283.441 628.758 291.751 631.929 297.437C633.294 299.885 635.002 301.697 637.395 303.03C639.873 304.41 644.148 305.861 651.463 305.861H698.742C711.66 305.861 722.936 308.251 732.368 313.374C741.995 318.604 748.538 326.057 752.756 334.18C760.245 348.604 760.218 365.236 760.204 374.118C760.203 374.493 760.202 374.854 760.202 375.201C760.202 385.011 759.561 401.917 751.307 416.719C746.96 424.514 740.492 431.764 731.213 436.932C722.019 442.052 711.126 444.542 698.742 444.542H604.185V406.722H698.742C706.057 406.722 710.332 405.271 712.81 403.891C715.203 402.558 716.911 400.746 718.276 398.298C721.447 392.612 722.382 384.302 722.382 375.201C722.382 364.846 722.023 357.063 719.191 351.608C718.09 349.488 716.654 347.879 714.315 346.608C711.779 345.23 707.099 343.681 698.742 343.681H651.463C639.079 343.681 628.186 341.191 618.992 336.071C609.713 330.903 603.245 323.653 598.898 315.858C590.643 301.056 590.003 284.151 590.003 274.34C590.003 273.994 590.002 273.632 590.001 273.257C589.987 264.375 589.96 247.743 597.449 233.319C601.667 225.196 608.209 217.744 617.837 212.514C627.268 207.391 638.545 205 651.463 205H746.02V242.82H651.463C643.106 242.82 638.426 244.369 635.89 245.747C633.55 247.018 632.115 248.627 631.014 250.747Z" fill="#202020"/>
<defs>
<linearGradient id="paint0_linear" x1="211" y1="333" x2="535" y2="333" gradientUnits="userSpaceOnUse">
<stop stop-color="#00BCD4"/>
<stop offset="1" stop-color="#12E2C9"/>
</linearGradient>
</defs>
</svg>
