<svg width="1892" height="250" viewBox="0 0 1892 250" fill="none" xmlns="http://www.w3.org/2000/svg">
<path d="M1891.89 206.85V244.673H1731.14V5.12872H1768.96V206.85H1891.89Z" fill="#202020"/>
<path d="M1693.32 143.684V105.861H1570.39V42.8229H1693.32V5.00012H1532.57V244.544H1693.32V206.722H1570.39V143.684H1693.32Z" fill="#202020"/>
<path d="M1494.75 244.545V206.722V5.00023H1456.92V206.722H1455.93L1400.19 5.00021L1334 5V244.544H1371.82V42.823H1372.82L1428.56 244.545L1494.75 244.545Z" fill="#202020"/>
<path fill-rule="evenodd" clip-rule="evenodd" d="M1305.47 244.544H1267.65L1244.46 143.812H1201.02L1177.82 244.544H1140L1195.16 5.00012H1250.32L1305.47 244.544ZM1235.75 105.989H1209.73L1222.74 49.4869L1235.75 105.989Z" fill="#202020"/>
<path fill-rule="evenodd" clip-rule="evenodd" d="M982.634 5H1055.13C1090.52 5 1114.19 13.3563 1127.75 30.1516C1140.29 45.6777 1140.25 64.2164 1140.23 73.3037C1140.23 73.6644 1140.23 74.0102 1140.23 74.3404C1140.23 84.958 1139.01 103.454 1125.49 119.039C1111.62 135.022 1088.7 143.681 1055.13 143.681H1020.45V244.543H982.634V5ZM1020.45 105.861H1055.13C1082.84 105.861 1093.01 98.7596 1096.92 94.2556C1101.17 89.3538 1102.41 82.6341 1102.41 74.3404C1102.41 64.0765 1101.84 58.2601 1098.33 53.9153C1095.35 50.2232 1085.92 42.82 1055.13 42.82H1020.45V105.861Z" fill="#202020"/>
<path fill-rule="evenodd" clip-rule="evenodd" d="M780.913 5.5H853.405C873.043 5.5 889.429 10.2197 902.499 19.3474C915.51 28.4347 923.705 40.8221 928.855 53.5757C938.52 77.5067 938.511 105.803 938.505 123.983C938.505 124.418 938.505 124.848 938.505 125.271C938.505 144.349 937.403 173.037 926.831 197.41C921.403 209.924 913.158 222.082 900.612 231.065C887.914 240.158 872.141 245.042 853.405 245.042H780.913V5.5ZM818.733 43.32V207.222H853.405C865.313 207.222 873.135 204.225 878.593 200.316C884.204 196.298 888.676 190.333 892.134 182.36C899.336 165.758 900.685 144.015 900.685 125.271C900.685 105.559 900.439 84.2091 893.787 67.7379C890.664 60.0042 886.448 54.2682 880.843 50.3539C875.297 46.4801 866.862 43.32 853.405 43.32H818.733Z" fill="#202020"/>
<path d="M697.599 41.7236C689.407 38.1043 678.232 37.8207 665.867 37.8207C654.563 37.8207 642.953 38.7726 634.6 42.7363C630.794 44.5426 628.26 46.7096 626.589 49.2619C624.954 51.7599 623.315 55.8885 623.315 63.0373V239.543H585.495V63.0373C585.495 49.7571 588.658 38.1554 594.945 28.5492C601.198 18.9974 609.708 12.6863 618.386 8.56827C635.002 0.683199 654.123 0.000717658 665.867 0.000717658C666.237 0.000717658 666.617 0.00037815 667.007 2.91055e-05L667.117 2.03346e-05C678.026 -0.000875909 696.741 -0.00241327 712.883 7.12952C721.832 11.0834 730.565 17.4189 736.906 27.3513C743.213 37.2316 746.239 49.2369 746.239 63.0373V239.544H708.419V63.0373C708.419 54.7744 706.643 50.2323 705.028 47.7019C703.446 45.2238 701.134 43.2855 697.599 41.7236Z" fill="#202020"/>
<path fill-rule="evenodd" clip-rule="evenodd" d="M503.546 186.506L503.546 10H541.366L541.366 186.506C541.366 200.307 538.34 212.312 532.032 222.192C525.692 232.125 516.959 238.46 508.01 242.414C491.813 249.57 473.026 249.544 462.134 249.544C461.743 249.543 461.363 249.543 460.994 249.543C449.249 249.543 430.129 248.86 413.512 240.975C404.835 236.857 396.324 230.546 390.072 220.994C383.784 211.388 380.622 199.787 380.622 186.506L380.622 10.0002L418.442 10.0002L418.442 186.506C418.442 193.655 420.081 197.784 421.716 200.282C423.387 202.834 425.92 205.001 429.727 206.807C438.079 210.771 449.69 211.723 460.994 211.723C473.359 211.723 484.534 211.439 492.726 207.82C496.261 206.258 498.572 204.32 500.154 201.842C501.77 199.311 503.546 194.769 503.546 186.506Z" fill="#202020"/>
<path fill-rule="evenodd" clip-rule="evenodd" d="M231.041 65.0729C226.298 82.6923 226.176 105.263 226.176 124.771C226.176 143.64 227.064 166.462 232.173 184.132C234.715 192.92 237.868 198.832 241.101 202.306C243.801 205.205 246.748 206.722 251.392 206.722H286.063C290.707 206.722 293.655 205.205 296.355 202.306C299.588 198.832 302.741 192.92 305.283 184.132C310.392 166.462 311.28 143.64 311.28 124.771C311.28 105.263 311.158 82.6923 306.414 65.0729C304.079 56.4001 301.058 50.7204 297.895 47.4076C295.294 44.6825 291.979 42.82 286.063 42.82H251.392C245.476 42.82 242.162 44.6825 239.56 47.4076C236.398 50.7204 233.376 56.4001 231.041 65.0729ZM212.203 21.2938C222.013 11.0172 235.245 5 251.392 5H286.063C302.211 5 315.443 11.0172 325.253 21.2938C334.501 30.9825 339.753 43.4262 342.934 55.2407C349.106 78.1641 349.102 105.427 349.1 123.745C349.1 124.09 349.1 124.432 349.1 124.771C349.1 143.724 348.353 171.333 341.614 194.638C338.231 206.336 332.906 218.548 324.036 228.076C314.631 238.178 301.848 244.542 286.063 244.542H251.392C235.608 244.542 222.825 238.178 213.42 228.076C204.55 218.548 199.225 206.336 195.842 194.638C189.102 171.333 188.356 143.724 188.356 124.771C188.356 124.432 188.356 124.09 188.356 123.745C188.354 105.427 188.35 78.1641 194.522 55.2407C197.703 43.4262 202.955 30.9825 212.203 21.2938Z" fill="#202020"/>
<path fill-rule="evenodd" clip-rule="evenodd" d="M41.8292 50.7474C38.9971 56.2019 38.6379 63.9853 38.6379 74.3404C38.6379 83.4414 39.5729 91.7508 42.744 97.4369C44.1095 99.8855 45.8169 101.697 48.2099 103.03C50.688 104.41 54.9631 105.861 62.2785 105.861H109.557C122.475 105.861 133.752 108.251 143.183 113.374C152.811 118.604 159.353 126.057 163.571 134.18C171.06 148.604 171.033 165.236 171.019 174.118C171.018 174.493 171.018 174.854 171.018 175.201C171.018 185.011 170.377 201.917 162.122 216.719C157.775 224.514 151.307 231.764 142.028 236.932C132.834 242.052 121.941 244.542 109.557 244.542H15V206.722H109.557C116.872 206.722 121.147 205.271 123.626 203.891C126.019 202.558 127.726 200.746 129.092 198.298C132.263 192.612 133.198 184.302 133.198 175.201C133.198 164.846 132.838 157.063 130.006 151.608C128.905 149.488 127.47 147.879 125.13 146.608C122.594 145.23 117.914 143.681 109.557 143.681H62.2785C49.8946 143.681 39.0011 141.191 29.8074 136.071C20.5285 130.903 14.0606 123.653 9.71334 115.858C1.45877 101.056 0.81786 84.1507 0.81786 74.3404C0.81786 73.9936 0.81727 73.6322 0.816657 73.257C0.802152 64.3749 0.77499 47.7429 8.26414 33.3194C12.4821 25.1959 19.0247 17.7436 28.6526 12.5137C38.0837 7.39058 49.3604 5 62.2785 5H156.835V42.82H62.2785C53.9213 42.82 49.2415 44.3693 46.7052 45.747C44.3657 47.0178 42.9301 48.6272 41.8292 50.7474Z" fill="#202020"/>
</svg>
