<svg width="512" height="512" viewBox="0 0 512 512" fill="none" xmlns="http://www.w3.org/2000/svg">
<mask id="mask0" mask-type="alpha" maskUnits="userSpaceOnUse" x="39" y="17" width="451" height="465">
<path d="M333 216H490V17.5H39V482H490V296H333V216Z" fill="white"/>
</mask>
<g mask="url(#mask0)">
<mask id="mask1" mask-type="alpha" maskUnits="userSpaceOnUse" x="71" y="71" width="370" height="370">
<rect x="111" y="111" width="290" height="290" rx="145" stroke="#202020" stroke-width="80"/>
</mask>
<g mask="url(#mask1)">
<path d="M213.229 340L263.459 427H163L213.229 340Z" fill="#202020"/>
<path d="M113.229 340L163.459 427H63L113.229 340Z" fill="#202020"/>
<path d="M413.229 340L463.459 427H363L413.229 340Z" fill="#202020"/>
<path d="M313.229 340L363.459 427H263L313.229 340Z" fill="#202020"/>
<path d="M162.229 425L212.459 512H112L162.229 425Z" fill="#202020"/>
<path d="M62.2295 425L112.459 512H12L62.2295 425Z" fill="#202020"/>
<path d="M362.229 425L412.459 512H312L362.229 425Z" fill="#202020"/>
<path d="M262.229 425L312.459 512H212L262.229 425Z" fill="#202020"/>
<path d="M213.229 -7.99994L263.459 79.0001H163L213.229 -7.99994Z" fill="#202020"/>
<path d="M113.229 -7.99994L163.459 79.0001H63L113.229 -7.99994Z" fill="#202020"/>
<path d="M413.229 -7.99994L463.459 79.0001H363L413.229 -7.99994Z" fill="#202020"/>
<path d="M313.229 -7.99994L363.459 79.0001H263L313.229 -7.99994Z" fill="#202020"/>
<path d="M163.229 79.0001L213.459 166H113L163.229 79.0001Z" fill="#202020"/>
<path d="M63.2295 79.0001L113.459 166H13L63.2295 79.0001Z" fill="#202020"/>
<path d="M363.229 79.0001L413.459 166H313L363.229 79.0001Z" fill="#202020"/>
<path d="M463.229 79.0001L513.459 166H413L463.229 79.0001Z" fill="#202020"/>
<path d="M263.229 79.0001L313.459 166H213L263.229 79.0001Z" fill="#202020"/>
<path d="M213.229 166L263.459 253H163L213.229 166Z" fill="#202020"/>
<path d="M113.229 166L163.459 253H63L113.229 166Z" fill="#202020"/>
<path d="M413.229 166L463.459 253H363L413.229 166Z" fill="#202020"/>
<path d="M313.229 166L363.459 253H263L313.229 166Z" fill="#202020"/>
<path d="M163.229 253L213.459 340H113L163.229 253Z" fill="#202020"/>
<path d="M63.2295 253L113.459 340H13L63.2295 253Z" fill="#202020"/>
<path d="M363.229 253L413.459 340H313L363.229 253Z" fill="#202020"/>
<path d="M263.229 253L313.459 340H213L263.229 253Z" fill="#202020"/>
<path d="M463.229 253L513.459 340H413L463.229 253Z" fill="#202020"/>
<path d="M363.23 79.0001L313 -7.99987L413.459 -7.99986L363.23 79.0001Z" fill="#404040"/>
<path d="M463.23 79.0001L413 -7.99986L513.459 -7.99985L463.23 79.0001Z" fill="#404040"/>
<path d="M163.23 79.0001L113 -7.99989L213.459 -7.99988L163.23 79.0001Z" fill="#404040"/>
<path d="M263.23 79.0001L213 -7.99987L313.459 -7.99986L263.23 79.0001Z" fill="#404040"/>
<path d="M363.23 427L313 340L413.459 340L363.23 427Z" fill="#404040"/>
<path d="M463.23 427L413 340L513.459 340L463.23 427Z" fill="#404040"/>
<path d="M163.23 427L113 340L213.459 340L163.23 427Z" fill="#404040"/>
<path d="M63.2295 427L13 340L113.459 340L63.2295 427Z" fill="#404040"/>
<path d="M263.23 427L213 340L313.459 340L263.23 427Z" fill="#404040"/>
<path d="M413.23 514L363 427L463.459 427L413.23 514Z" fill="#404040"/>
<path d="M213.23 514L163 427L263.459 427L213.23 514Z" fill="#404040"/>
<path d="M113.23 514L63 427L163.459 427L113.23 514Z" fill="#404040"/>
<path d="M313.23 514L263 427L363.459 427L313.23 514Z" fill="#404040"/>
<path d="M413.23 340L363 253L463.459 253L413.23 340Z" fill="#404040"/>
<path d="M213.23 340L163 253L263.459 253L213.23 340Z" fill="#404040"/>
<path d="M113.23 340L63 253L163.459 253L113.23 340Z" fill="#404040"/>
<path d="M313.23 340L263 253L363.459 253L313.23 340Z" fill="#404040"/>
<path d="M363.23 253L313 166L413.459 166L363.23 253Z" fill="#404040"/>
<path d="M463.23 253L413 166L513.459 166L463.23 253Z" fill="#404040"/>
<path d="M163.23 253L113 166L213.459 166L163.23 253Z" fill="#404040"/>
<path d="M263.23 253L213 166L313.459 166L263.23 253Z" fill="#404040"/>
<path d="M63.2295 253L13 166L113.459 166L63.2295 253Z" fill="#404040"/>
<path d="M413.23 166L363 79.0001L463.459 79.0001L413.23 166Z" fill="#404040"/>
<path d="M213.23 166L163 79.0001L263.459 79.0001L213.23 166Z" fill="#404040"/>
<path d="M313.23 166L263 79.0001L363.459 79.0001L313.23 166Z" fill="#404040"/>
<path d="M113.23 166L63 79.0001L163.459 79.0001L113.23 166Z" fill="#404040"/>
</g>
</g>
<mask id="mask2" mask-type="alpha" maskUnits="userSpaceOnUse" x="203" y="203" width="283" height="106">
<rect x="203" y="203" width="106" height="106" rx="53" fill="#00BCD4"/>
<mask id="mask3" maskUnits="userSpaceOnUse" x="316" y="229" width="170" height="55">
<rect x="316" y="229" width="170" height="55" fill="white"/>
</mask>
<g mask="url(#mask3)">
<path d="M290 256H512" stroke="#00BCD4" stroke-width="20" stroke-dasharray="50 10"/>
</g>
</mask>
<g mask="url(#mask2)">
<rect x="158" y="202" width="349" height="113" fill="url(#paint0_linear)"/>
</g>
<defs>
<linearGradient id="paint0_linear" x1="192" y1="259" x2="516" y2="259" gradientUnits="userSpaceOnUse">
<stop stop-color="#00BCD4"/>
<stop offset="1" stop-color="#12E2C9"/>
</linearGradient>
</defs>
</svg>
